# xmcd
#
# Track frame offsets:
#	150
#	15272
#	28592
#	44457
#	56560
#	73395
#	83340
#	94730
#	105967
#	117380
#	129275
#	139630
#	150487
#	173510
#	192505
#	203467
#	213360
#	222602
#	237865
#	252577
#
# Disc length: 3563
#
# Revision: 3
# Processed by: cddbd v1.5.1PL0 Copyright (c) Steve Scherf et al.
# Submitted via: MusicWizard 7.0.2
# Normalized: r2:TSWAP
#
DISCID=0c0de914
DTITLE=Various Artist - Mega Country (10/10)
DYEAR=1997
DGENRE=Country
TTITLE0=Ed Bruce - Mammas Don't Let Your Babies Grow Up To Be Cowboys
TTITLE1=Tanya Tucker - Jamestown Ferry
TTITLE2=Alex Harvey - Delta Dawn
TTITLE3=Johnny Lee - Hey Bartender
TTITLE4=Janie Fricke - It Ain't Easy Being Easy
TTITLE5=Johnny Cash - Ballad Of A Teenage Queen
TTITLE6=Mel McDaniel - Stand Up
TTITLE7=Ned Miller - Do What You Do, Do Well
TTITLE8=Charlie Louvin - If I Could Only Win Your Love
TTITLE9=Skeeter Davis - End Of The World
TTITLE10=Faron Young - Hello Walls
TTITLE11=The Everly Brothers - Devoted To You
TTITLE12=The Amazing Rhythm Aces - King Of The Cowboys
TTITLE13=Stella Parton - Sleeping With The Enemy
TTITLE14=Hank Thompson - Humpty Dumpty Heart
TTITLE15=Box Car Wilie - Blue Moon Of Kentucky
TTITLE16=The Kendalls - Blue Blue Day
TTITLE17=Becky Hobbs - I Don't Dance With Strangers
TTITLE18=Lee Greenwood - God Bless The USA
TTITLE19=The Bellamy Brothers - Let Your Love Flow
EXTD=
EXTT0=
EXTT1=
EXTT2=
EXTT3=
EXTT4=
EXTT5=
EXTT6=
EXTT7=
EXTT8=
EXTT9=
EXTT10=
EXTT11=
EXTT12=
EXTT13=
EXTT14=
EXTT15=
EXTT16=
EXTT17=
EXTT18=
EXTT19=
PLAYORDER=
